<svg xmlns="http://www.w3.org/2000/svg" width="400" height="144" viewBox="0 0 400 144" role="img" aria-labelledby="title desc">
<title id="title">Docs — edge computing project</title><desc id="desc">A looping decorative illustration. Static version.</desc>
<defs></defs><rect width="400" height="144" rx="8" fill="#F4F7FC"/><circle cx="16" cy="14" r=".65" fill="#52647B" opacity=".18"/><circle cx="16" cy="34" r=".65" fill="#52647B" opacity=".18"/><circle cx="16" cy="54" r=".65" fill="#52647B" opacity=".18"/><circle cx="16" cy="74" r=".65" fill="#52647B" opacity=".18"/><circle cx="16" cy="94" r=".65" fill="#52647B" opacity=".18"/><circle cx="16" cy="114" r=".65" fill="#52647B" opacity=".18"/><circle cx="16" cy="134" r=".65" fill="#52647B" opacity=".18"/><circle cx="36" cy="14" r=".65" fill="#52647B" opacity=".18"/><circle cx="36" cy="34" r=".65" fill="#52647B" opacity=".18"/><circle cx="36" cy="54" r=".65" fill="#52647B" opacity=".18"/><circle cx="36" cy="74" r=".65" fill="#52647B" opacity=".18"/><circle cx="36" cy="94" r=".65" fill="#52647B" opacity=".18"/><circle cx="36" cy="114" r=".65" fill="#52647B" opacity=".18"/><circle cx="36" cy="134" r=".65" fill="#52647B" opacity=".18"/><circle cx="56" cy="14" r=".65" fill="#52647B" opacity=".18"/><circle cx="56" cy="34" r=".65" fill="#52647B" opacity=".18"/><circle cx="56" cy="54" r=".65" fill="#52647B" opacity=".18"/><circle cx="56" cy="74" r=".65" fill="#52647B" opacity=".18"/><circle cx="56" cy="94" r=".65" fill="#52647B" opacity=".18"/><circle cx="56" cy="114" r=".65" fill="#52647B" opacity=".18"/><circle cx="56" cy="134" r=".65" fill="#52647B" opacity=".18"/><circle cx="76" cy="14" r=".65" fill="#52647B" opacity=".18"/><circle cx="76" cy="34" r=".65" fill="#52647B" opacity=".18"/><circle cx="76" cy="54" r=".65" fill="#52647B" opacity=".18"/><circle cx="76" cy="74" r=".65" fill="#52647B" opacity=".18"/><circle cx="76" cy="94" r=".65" fill="#52647B" opacity=".18"/><circle cx="76" cy="114" r=".65" fill="#52647B" opacity=".18"/><circle cx="76" cy="134" r=".65" fill="#52647B" opacity=".18"/><circle cx="96" cy="14" r=".65" fill="#52647B" opacity=".18"/><circle cx="96" cy="34" r=".65" fill="#52647B" opacity=".18"/><circle cx="96" cy="54" r=".65" fill="#52647B" opacity=".18"/><circle cx="96" cy="74" r=".65" fill="#52647B" opacity=".18"/><circle cx="96" cy="94" r=".65" fill="#52647B" opacity=".18"/><circle cx="96" cy="114" r=".65" fill="#52647B" opacity=".18"/><circle cx="96" cy="134" r=".65" fill="#52647B" opacity=".18"/><circle cx="116" cy="14" r=".65" fill="#52647B" opacity=".18"/><circle cx="116" cy="34" r=".65" fill="#52647B" opacity=".18"/><circle cx="116" cy="54" r=".65" fill="#52647B" opacity=".18"/><circle cx="116" cy="74" r=".65" fill="#52647B" opacity=".18"/><circle cx="116" cy="94" r=".65" fill="#52647B" opacity=".18"/><circle cx="116" cy="114" r=".65" fill="#52647B" opacity=".18"/><circle cx="116" cy="134" r=".65" fill="#52647B" opacity=".18"/><circle cx="136" cy="14" r=".65" fill="#52647B" opacity=".18"/><circle cx="136" cy="34" r=".65" fill="#52647B" opacity=".18"/><circle cx="136" cy="54" r=".65" fill="#52647B" opacity=".18"/><circle cx="136" cy="74" r=".65" fill="#52647B" opacity=".18"/><circle cx="136" cy="94" r=".65" fill="#52647B" opacity=".18"/><circle cx="136" cy="114" r=".65" fill="#52647B" opacity=".18"/><circle cx="136" cy="134" r=".65" fill="#52647B" opacity=".18"/><circle cx="156" cy="14" r=".65" fill="#52647B" opacity=".18"/><circle cx="156" cy="34" r=".65" fill="#52647B" opacity=".18"/><circle cx="156" cy="54" r=".65" fill="#52647B" opacity=".18"/><circle cx="156" cy="74" r=".65" fill="#52647B" opacity=".18"/><circle cx="156" cy="94" r=".65" fill="#52647B" opacity=".18"/><circle cx="156" cy="114" r=".65" fill="#52647B" opacity=".18"/><circle cx="156" cy="134" r=".65" fill="#52647B" opacity=".18"/><circle cx="176" cy="14" r=".65" fill="#52647B" opacity=".18"/><circle cx="176" cy="34" r=".65" fill="#52647B" opacity=".18"/><circle cx="176" cy="54" r=".65" fill="#52647B" opacity=".18"/><circle cx="176" cy="74" r=".65" fill="#52647B" opacity=".18"/><circle cx="176" cy="94" r=".65" fill="#52647B" opacity=".18"/><circle cx="176" cy="114" r=".65" fill="#52647B" opacity=".18"/><circle cx="176" cy="134" r=".65" fill="#52647B" opacity=".18"/><circle cx="196" cy="14" r=".65" fill="#52647B" opacity=".18"/><circle cx="196" cy="34" r=".65" fill="#52647B" opacity=".18"/><circle cx="196" cy="54" r=".65" fill="#52647B" opacity=".18"/><circle cx="196" cy="74" r=".65" fill="#52647B" opacity=".18"/><circle cx="196" cy="94" r=".65" fill="#52647B" opacity=".18"/><circle cx="196" cy="114" r=".65" fill="#52647B" opacity=".18"/><circle cx="196" cy="134" r=".65" fill="#52647B" opacity=".18"/><circle cx="216" cy="14" r=".65" fill="#52647B" opacity=".18"/><circle cx="216" cy="34" r=".65" fill="#52647B" opacity=".18"/><circle cx="216" cy="54" r=".65" fill="#52647B" opacity=".18"/><circle cx="216" cy="74" r=".65" fill="#52647B" opacity=".18"/><circle cx="216" cy="94" r=".65" fill="#52647B" opacity=".18"/><circle cx="216" cy="114" r=".65" fill="#52647B" opacity=".18"/><circle cx="216" cy="134" r=".65" fill="#52647B" opacity=".18"/><circle cx="236" cy="14" r=".65" fill="#52647B" opacity=".18"/><circle cx="236" cy="34" r=".65" fill="#52647B" opacity=".18"/><circle cx="236" cy="54" r=".65" fill="#52647B" opacity=".18"/><circle cx="236" cy="74" r=".65" fill="#52647B" opacity=".18"/><circle cx="236" cy="94" r=".65" fill="#52647B" opacity=".18"/><circle cx="236" cy="114" r=".65" fill="#52647B" opacity=".18"/><circle cx="236" cy="134" r=".65" fill="#52647B" opacity=".18"/><circle cx="256" cy="14" r=".65" fill="#52647B" opacity=".18"/><circle cx="256" cy="34" r=".65" fill="#52647B" opacity=".18"/><circle cx="256" cy="54" r=".65" fill="#52647B" opacity=".18"/><circle cx="256" cy="74" r=".65" fill="#52647B" opacity=".18"/><circle cx="256" cy="94" r=".65" fill="#52647B" opacity=".18"/><circle cx="256" cy="114" r=".65" fill="#52647B" opacity=".18"/><circle cx="256" cy="134" r=".65" fill="#52647B" opacity=".18"/><circle cx="276" cy="14" r=".65" fill="#52647B" opacity=".18"/><circle cx="276" cy="34" r=".65" fill="#52647B" opacity=".18"/><circle cx="276" cy="54" r=".65" fill="#52647B" opacity=".18"/><circle cx="276" cy="74" r=".65" fill="#52647B" opacity=".18"/><circle cx="276" cy="94" r=".65" fill="#52647B" opacity=".18"/><circle cx="276" cy="114" r=".65" fill="#52647B" opacity=".18"/><circle cx="276" cy="134" r=".65" fill="#52647B" opacity=".18"/><circle cx="296" cy="14" r=".65" fill="#52647B" opacity=".18"/><circle cx="296" cy="34" r=".65" fill="#52647B" opacity=".18"/><circle cx="296" cy="54" r=".65" fill="#52647B" opacity=".18"/><circle cx="296" cy="74" r=".65" fill="#52647B" opacity=".18"/><circle cx="296" cy="94" r=".65" fill="#52647B" opacity=".18"/><circle cx="296" cy="114" r=".65" fill="#52647B" opacity=".18"/><circle cx="296" cy="134" r=".65" fill="#52647B" opacity=".18"/><circle cx="316" cy="14" r=".65" fill="#52647B" opacity=".18"/><circle cx="316" cy="34" r=".65" fill="#52647B" opacity=".18"/><circle cx="316" cy="54" r=".65" fill="#52647B" opacity=".18"/><circle cx="316" cy="74" r=".65" fill="#52647B" opacity=".18"/><circle cx="316" cy="94" r=".65" fill="#52647B" opacity=".18"/><circle cx="316" cy="114" r=".65" fill="#52647B" opacity=".18"/><circle cx="316" cy="134" r=".65" fill="#52647B" opacity=".18"/><circle cx="336" cy="14" r=".65" fill="#52647B" opacity=".18"/><circle cx="336" cy="34" r=".65" fill="#52647B" opacity=".18"/><circle cx="336" cy="54" r=".65" fill="#52647B" opacity=".18"/><circle cx="336" cy="74" r=".65" fill="#52647B" opacity=".18"/><circle cx="336" cy="94" r=".65" fill="#52647B" opacity=".18"/><circle cx="336" cy="114" r=".65" fill="#52647B" opacity=".18"/><circle cx="336" cy="134" r=".65" fill="#52647B" opacity=".18"/><circle cx="356" cy="14" r=".65" fill="#52647B" opacity=".18"/><circle cx="356" cy="34" r=".65" fill="#52647B" opacity=".18"/><circle cx="356" cy="54" r=".65" fill="#52647B" opacity=".18"/><circle cx="356" cy="74" r=".65" fill="#52647B" opacity=".18"/><circle cx="356" cy="94" r=".65" fill="#52647B" opacity=".18"/><circle cx="356" cy="114" r=".65" fill="#52647B" opacity=".18"/><circle cx="356" cy="134" r=".65" fill="#52647B" opacity=".18"/><circle cx="376" cy="14" r=".65" fill="#52647B" opacity=".18"/><circle cx="376" cy="34" r=".65" fill="#52647B" opacity=".18"/><circle cx="376" cy="54" r=".65" fill="#52647B" opacity=".18"/><circle cx="376" cy="74" r=".65" fill="#52647B" opacity=".18"/><circle cx="376" cy="94" r=".65" fill="#52647B" opacity=".18"/><circle cx="376" cy="114" r=".65" fill="#52647B" opacity=".18"/><circle cx="376" cy="134" r=".65" fill="#52647B" opacity=".18"/><circle cx="396" cy="14" r=".65" fill="#52647B" opacity=".18"/><circle cx="396" cy="34" r=".65" fill="#52647B" opacity=".18"/><circle cx="396" cy="54" r=".65" fill="#52647B" opacity=".18"/><circle cx="396" cy="74" r=".65" fill="#52647B" opacity=".18"/><circle cx="396" cy="94" r=".65" fill="#52647B" opacity=".18"/><circle cx="396" cy="114" r=".65" fill="#52647B" opacity=".18"/><circle cx="396" cy="134" r=".65" fill="#52647B" opacity=".18"/><rect x="46" y="19" width="308" height="109" rx="7" fill="#FFFFFF" stroke="#D9E2ED"/><circle cx="62" cy="32" r="2.5" fill="#007B8C"/><circle cx="73" cy="32" r="2.5" fill="#47752A"/><circle cx="84" cy="32" r="2.5" fill="#52647B"/><path aria-label="RDK / DEVELOPER NOTES" fill="#52647B" transform="translate(180 36) scale(0.008 -0.008)" d="M67.749267578125 0.0V700.0H369.1253662109375Q435.03790283203125 700.0 484.0816345214844 677.0874633789062Q533.1253662109375 654.1749267578125 560.2565612792969 612.2186584472656Q587.3877563476562 570.2623901367188 587.3877563476562 513.0874633789062V501.26239013671875Q587.3877563476562 437.56268310546875 557.0379028320312 398.4314880371094Q526.6880493164062 359.30029296875 482.51312255859375 341.73760986328125V324.26239013671875Q522.0758056640625 322.349853515625 544.250732421875 297.2434387207031Q566.4256591796875 272.13702392578125 566.4256591796875 229.78717041015625V0.0H440.3731689453125V211.83673095703125Q440.3731689453125 236.53643798828125 427.43585205078125 251.71136474609375Q414.49853515625 266.88629150390625 384.9737548828125 266.88629150390625H193.8017578125V0.0ZM193.8017578125 381.46356201171875H355.8250732421875Q405.53643798828125 381.46356201171875 433.43585205078125 407.9256591796875Q461.33526611328125 434.38775634765625 461.33526611328125 478.66180419921875V488.2244873046875Q461.33526611328125 532.49853515625 433.9795837402344 558.9606323242188Q406.6239013671875 585.4227294921875 355.8250732421875 585.4227294921875H193.8017578125ZM728.1749267578125 0.0V110.9271240234375H820.8746337890625V589.0728759765625H728.1749267578125V700.0H1014.250732421875Q1154.90087890625 700.0 1228.6632690429688 628.6749267578125Q1302.4256591796875 557.349853515625 1302.4256591796875 415.8250732421875V284.08746337890625Q1302.4256591796875 142.56268310546875 1228.6632690429688 71.28134155273438Q1154.90087890625 0.0 1014.250732421875 0.0ZM946.9271240234375 114.5772705078125H1016.0758056640625Q1098.69970703125 114.5772705078125 1137.5364379882812 157.53936767578125Q1176.3731689453125 200.50146484375 1176.3731689453125 280.1749267578125V419.73760986328125Q1176.3731689453125 500.41107177734375 1137.5364379882812 542.8731689453125Q1098.69970703125 585.3352661132812 1016.0758056640625 585.3352661132812H946.9271240234375ZM1465.749267578125 0.0V700.0H1591.8017578125V418.6763916015625H1609.2769775390625L1844.7609252929688 700.0H2006.851318359375L1708.7288818359375 354.91253662109375L2017.0262451171875 0.0H1850.2857055664062L1609.2769775390625 287.3236083984375H1591.8017578125V0.0ZM2361.9241943359375 -200.0 2655.9241943359375 700.0H2776.2390747070312L2482.2390747070312 -200.0ZM3162.1749267578125 0.0V110.9271240234375H3254.8746337890625V589.0728759765625H3162.1749267578125V700.0H3448.250732421875Q3588.90087890625 700.0 3662.6632690429688 628.6749267578125Q3736.4256591796875 557.349853515625 3736.4256591796875 415.8250732421875V284.08746337890625Q3736.4256591796875 142.56268310546875 3662.6632690429688 71.28134155273438Q3588.90087890625 0.0 3448.250732421875 0.0ZM3380.9271240234375 114.5772705078125H3450.0758056640625Q3532.69970703125 114.5772705078125 3571.5364379882812 157.53936767578125Q3610.3731689453125 200.50146484375 3610.3731689453125 280.1749267578125V419.73760986328125Q3610.3731689453125 500.41107177734375 3571.5364379882812 542.8731689453125Q3532.69970703125 585.3352661132812 3450.0758056640625 585.3352661132812H3380.9271240234375ZM3899.749267578125 0.0V700.0H4347.387756347656V585.4227294921875H4025.8017578125V410.11370849609375H4319.387756347656V295.53643798828125H4025.8017578125V114.5772705078125H4353.212829589844V0.0ZM4637.985412597656 0.0 4455.8746337890625 700.0H4585.839660644531L4739.1749267578125 80.8017578125H4753.0L4906.335266113281 700.0H5036.30029296875L4854.189514160156 0.0ZM5172.749267578125 0.0V700.0H5620.387756347656V585.4227294921875H5298.8017578125V410.11370849609375H5592.387756347656V295.53643798828125H5298.8017578125V114.5772705078125H5626.212829589844V0.0ZM5777.749267578125 0.0V700.0H5903.8017578125V114.5772705078125H6228.0V0ZM6639.562683105469 -14.0Q6508.349853515625 -14.0 6430.787170410156 58.5Q6353.2244873046875 131.0 6353.2244873046875 266.43731689453125V433.56268310546875Q6353.2244873046875 569.0 6430.787170410156 641.5Q6508.349853515625 714.0 6639.562683105469 714.0Q6770.7755126953125 714.0 6848.338195800781 641.5Q6925.90087890625 569.0 6925.90087890625 433.56268310546875V266.43731689453125Q6925.90087890625 131.0 6848.338195800781 58.5Q6770.7755126953125 -14.0 6639.562683105469 -14.0ZM6639.562683105469 98.752197265625Q6715.661804199219 98.752197265625 6757.755096435547 143.151611328125Q6799.848388671875 187.551025390625 6799.848388671875 262.61224365234375V437.38775634765625Q6799.848388671875 512.448974609375 6757.755096435547 556.848388671875Q6715.661804199219 601.247802734375 6639.562683105469 601.247802734375Q6564.463562011719 601.247802734375 6521.870269775391 556.848388671875Q6479.2769775390625 512.448974609375 6479.2769775390625 437.38775634765625V262.61224365234375Q6479.2769775390625 187.551025390625 6521.870269775391 143.151611328125Q6564.463562011719 98.752197265625 6639.562683105469 98.752197265625ZM7094.749267578125 0.0V700.0H7380.212829589844Q7445.862976074219 700.0 7496.2755126953125 673.7623901367188Q7546.688049316406 647.5247802734375 7575.231781005859 599.8746337890625Q7603.7755126953125 552.2244873046875 7603.7755126953125 486.48687744140625V472.66180419921875Q7603.7755126953125 407.83673095703125 7574.2755126953125 359.68658447265625Q7544.7755126953125 311.53643798828125 7494.362976074219 285.3425598144531Q7443.950439453125 259.148681640625 7380.212829589844 259.148681640625H7220.8017578125V0.0ZM7220.8017578125 373.7259521484375H7367.737609863281Q7417.186584472656 373.7259521484375 7447.454803466797 400.68804931640625Q7477.7230224609375 427.650146484375 7477.7230224609375 474.5743408203125V484.5743408203125Q7477.7230224609375 531.5859985351562 7447.542266845703 558.5043640136719Q7417.361511230469 585.4227294921875 7367.737609863281 585.4227294921875H7220.8017578125ZM7748.749267578125 0.0V700.0H8196.387756347656V585.4227294921875H7874.8017578125V410.11370849609375H8168.387756347656V295.53643798828125H7874.8017578125V114.5772705078125H8202.212829589844V0.0ZM8353.749267578125 0.0V700.0H8655.125366210938Q8721.037902832031 700.0 8770.081634521484 677.0874633789062Q8819.125366210938 654.1749267578125 8846.256561279297 612.2186584472656Q8873.387756347656 570.2623901367188 8873.387756347656 513.0874633789062V501.26239013671875Q8873.387756347656 437.56268310546875 8843.037902832031 398.4314880371094Q8812.688049316406 359.30029296875 8768.513122558594 341.73760986328125V324.26239013671875Q8808.075805664062 322.349853515625 8830.250732421875 297.2434387207031Q8852.425659179688 272.13702392578125 8852.425659179688 229.78717041015625V0.0H8726.373168945312V211.83673095703125Q8726.373168945312 236.53643798828125 8713.435852050781 251.71136474609375Q8700.49853515625 266.88629150390625 8670.973754882812 266.88629150390625H8479.8017578125V0.0ZM8479.8017578125 381.46356201171875H8641.825073242188Q8691.536437988281 381.46356201171875 8719.435852050781 407.9256591796875Q8747.335266113281 434.38775634765625 8747.335266113281 478.66180419921875V488.2244873046875Q8747.335266113281 532.49853515625 8719.979583740234 558.9606323242188Q8692.623901367188 585.4227294921875 8641.825073242188 585.4227294921875H8479.8017578125ZM9339.749267578125 0.0V700.0H9579.90380859375L9731.760925292969 85.451904296875H9749.236145019531V700.0H9873.463562011719V0.0H9633.309020996094L9481.451904296875 614.6355590820312H9463.976684570312V0.0ZM10328.562683105469 -14.0Q10197.349853515625 -14.0 10119.787170410156 58.5Q10042.224487304688 131.0 10042.224487304688 266.43731689453125V433.56268310546875Q10042.224487304688 569.0 10119.787170410156 641.5Q10197.349853515625 714.0 10328.562683105469 714.0Q10459.775512695312 714.0 10537.338195800781 641.5Q10614.90087890625 569.0 10614.90087890625 433.56268310546875V266.43731689453125Q10614.90087890625 131.0 10537.338195800781 58.5Q10459.775512695312 -14.0 10328.562683105469 -14.0ZM10328.562683105469 98.752197265625Q10404.661804199219 98.752197265625 10446.755096435547 143.151611328125Q10488.848388671875 187.551025390625 10488.848388671875 262.61224365234375V437.38775634765625Q10488.848388671875 512.448974609375 10446.755096435547 556.848388671875Q10404.661804199219 601.247802734375 10328.562683105469 601.247802734375Q10253.463562011719 601.247802734375 10210.87026977539 556.848388671875Q10168.276977539062 512.448974609375 10168.276977539062 437.38775634765625V262.61224365234375Q10168.276977539062 187.551025390625 10210.87026977539 143.151611328125Q10253.463562011719 98.752197265625 10328.562683105469 98.752197265625ZM10946.973754882812 0.0V585.4227294921875H10740.349853515625V700.0H11279.650146484375V585.4227294921875H11073.026245117188V0.0ZM11421.749267578125 0.0V700.0H11869.387756347656V585.4227294921875H11547.8017578125V410.11370849609375H11841.387756347656V295.53643798828125H11547.8017578125V114.5772705078125H11875.212829589844V0.0ZM12268.524780273438 -14.0Q12188.049560546875 -14.0 12126.311950683594 14.781341552734375Q12064.574340820312 43.56268310546875 12029.661804199219 97.60641479492188Q11994.749267578125 151.650146484375 11994.749267578125 228.349853515625V255.56268310546875H12118.976684570312V228.349853515625Q12118.976684570312 162.3760986328125 12159.419830322266 129.56414794921875Q12199.862976074219 96.752197265625 12268.524780273438 96.752197265625Q12338.186584472656 96.752197265625 12372.86734008789 124.93295288085938Q12407.548095703125 153.11370849609375 12407.548095703125 196.950439453125Q12407.548095703125 227.08746337890625 12390.6982421875 245.74343872070312Q12373.848388671875 264.3994140625 12341.911071777344 276.249267578125Q12309.973754882812 288.09912109375 12264.711364746094 298.2740478515625L12238.125366210938 304.23614501953125Q12167.437316894531 320.148681640625 12116.505828857422 344.4737548828125Q12065.574340820312 368.798828125 12038.205535888672 408.4927062988281Q12010.836730957031 448.18658447265625 12010.836730957031 511.5743408203125Q12010.836730957031 574.9620971679688 12041.249267578125 620.1559753417969Q12071.661804199219 665.349853515625 12126.855682373047 689.6749267578125Q12182.049560546875 714.0 12256.524780273438 714.0Q12331.0 714 12389.237609863281 688.6311950683594Q12447.475219726562 663.2623901367188 12480.887756347656 613.1122436523438Q12514.30029296875 562.9620971679688 12514.30029296875 487.48687744140625V456.0H12390.072875976562V487.48687744140625Q12390.072875976562 528.798828125 12373.82943725586 554.1297302246094Q12357.585998535156 579.4606323242188 12327.536437988281 591.3542175292969Q12297.486877441406 603.247802734375 12256.524780273438 603.247802734375Q12195.387756347656 603.247802734375 12165.225952148438 579.7857055664062Q12135.064147949219 556.3236083984375 12135.064147949219 515.2244873046875Q12135.064147949219 487.8250732421875 12149.088928222656 469.21282958984375Q12163.113708496094 450.6005859375 12190.857147216797 438.33819580078125Q12218.6005859375 426.0758056640625 12261.125366210938 416.81341552734375L12287.711364746094 410.851318359375Q12360.962097167969 395.11370849609375 12415.63119506836 370.4198303222656Q12470.30029296875 345.7259521484375 12501.037902832031 305.0320739746094Q12531.775512695312 264.33819580078125 12531.775512695312 200.6005859375Q12531.775512695312 136.86297607421875 12499.450439453125 88.66909790039062Q12467.125366210938 40.4752197265625 12408.018951416016 13.23760986328125Q12348.912536621094 -14.0 12268.524780273438 -14.0Z"/><path class="code-line" style="animation-delay:-3.0s" d="M66 54h198" stroke="#007B8C" stroke-width="4" stroke-linecap="round"/><path class="code-line" style="animation-delay:-2.35s" d="M66 72h147" stroke="#52647B" stroke-width="4" stroke-linecap="round"/><path class="code-line" style="animation-delay:-1.7s" d="M66 90h222" stroke="#52647B" stroke-width="4" stroke-linecap="round"/><path class="code-line" style="animation-delay:-1.0499999999999998s" d="M66 108h165" stroke="#52647B" stroke-width="4" stroke-linecap="round"/><rect class="cursor" x="240" y="102" width="6" height="9" fill="#007B8C"/></svg>